<mxfile host="app.diagrams.net" modified="2023-09-28T11:03:05.660Z" agent="Mozilla/5.0 (Macintosh; Intel Mac OS X 10_15_7) AppleWebKit/537.36 (KHTML, like Gecko) Chrome/117.0.0.0 Safari/537.36" version="21.8.2" etag="UFB0z5DXmamVDxVJ_xtl" type="github">
  <diagram name="Page-1" id="-ycgpcQGxulp0kToukXi">
    <mxGraphModel>
      <root>
        <mxCell id="0" />
        <mxCell id="1" parent="0" />
      </root>
    </mxGraphModel>
  </diagram>
</mxfile>
